<?xml version="1.0" encoding="utf-8"?>
<!-- Generator: Adobe Illustrator 27.5.0, SVG Export Plug-In . SVG Version: 6.00 Build 0)  -->
<svg version="1.1" xmlns="http://www.w3.org/2000/svg" xmlns:xlink="http://www.w3.org/1999/xlink" x="0px" y="0px"
	 viewBox="0 0 2200 2200" style="enable-background:new 0 0 2200 2200;" xml:space="preserve">
<g id="background">
	<rect style="fill:#FFFFFF;" width="2200" height="2200"/>
</g>
<g id="Objects">
	<g>
		<g>
			<path style="fill:#252C38;" d="M1735.82,1492.938h-172.496c27.629-26.36,51.688-54.457,71.8-83.931
				c43.946-64.41,72.428-142.15,87.069-237.663c12.652-82.531,13.7-167.526,13.7-254.602c0-96.9-7.332-253.772-13.482-368.306
				c-0.945-17.625-8.181-34.359-20.373-47.118c-12.201-12.769-28.596-20.75-46.161-22.472
				c-106.852-10.5-190.248-30.103-297.453-69.917c-83.902-31.144-154.836-75.296-205.131-127.684
				c-14.061-14.647-32.987-22.713-53.294-22.713s-39.233,8.066-53.293,22.712c-50.296,52.388-121.229,96.541-205.135,127.686
				c-107.202,39.813-190.599,59.416-297.447,69.916c-17.568,1.723-33.963,9.704-46.164,22.473
				c-12.192,12.759-19.428,29.493-20.373,47.116c-6.15,114.536-13.482,271.407-13.482,368.308c0,87.076,1.048,172.071,13.7,254.602
				c14.642,95.513,43.123,173.253,87.07,237.664c20.112,29.473,44.171,57.57,71.799,83.93H464.18
				c-59.225,0-107.407,48.183-107.407,107.406v233.718c0,59.224,48.182,107.406,107.407,107.406H1735.82
				c59.224,0,107.406-48.183,107.406-107.406v-233.718C1843.227,1541.12,1795.044,1492.938,1735.82,1492.938z M595.495,1388.114
				c-40.754-59.73-67.266-132.475-81.049-222.388c-12.257-79.952-13.272-163.397-13.272-248.985
				c0-96.079,7.303-252.237,13.43-366.321c0.981-18.31,14.919-32.896,33.144-34.684c108.858-10.697,197.724-31.573,306.729-72.056
				c89.109-33.077,164.828-80.369,218.973-136.765c7.004-7.296,16.434-11.315,26.552-11.315s19.548,4.019,26.553,11.316
				c54.144,56.395,129.862,103.687,218.969,136.763c109.008,40.483,197.873,61.359,306.734,72.057
				c18.222,1.787,32.159,16.374,33.141,34.685c6.127,114.083,13.43,270.241,13.43,366.32c0,85.587-1.016,169.033-13.272,248.985
				c-13.783,89.913-40.295,162.657-81.049,222.387c-25.604,37.522-58.223,72.756-96.981,104.824h-76.104
				c57.178-38.584,102.699-82.447,135.84-131.009c80.135-117.437,86.656-270.641,86.656-444.179
				c0-94.008-7.166-247.086-13.182-359.053c-110.548-10.87-200.781-32.063-311.361-73.127
				c-92.881-34.483-172.178-84.128-229.374-143.614c-57.164,59.469-136.471,109.125-229.367,143.612
				c-110.584,41.066-200.804,62.259-311.365,73.129c-6.016,111.947-13.182,265.034-13.182,359.053
				c0,173.538,6.521,326.742,86.656,444.177c33.141,48.564,78.664,92.427,135.841,131.011h-76.106
				C653.718,1460.869,621.099,1425.635,595.495,1388.114z M1806.158,1834.062c0,38.784-31.554,70.338-70.338,70.338H464.18
				c-38.785,0-70.338-31.554-70.338-70.338v-233.718c0-38.784,31.554-70.338,70.338-70.338h1049.981
				c0.006,0,0.012,0.001,0.018,0.001c0.008,0,0.016-0.001,0.024-0.001h221.618c38.784,0,70.338,31.554,70.338,70.338V1834.062z"/>
			<path style="fill:#252C38;" d="M672.286,1664.414c-5.117-8.864-16.45-11.903-25.318-6.783l-47.579,27.47v-54.939
				c0-10.236-8.298-18.534-18.534-18.534s-18.534,8.298-18.534,18.534v54.939l-47.579-27.47c-8.868-5.119-20.2-2.081-25.318,6.783
				c-5.118,8.865-2.081,20.201,6.783,25.318l47.58,27.47l-47.58,27.47c-8.864,5.117-11.901,16.453-6.783,25.318
				c3.433,5.946,9.662,9.27,16.068,9.27c3.144,0,6.331-0.801,9.25-2.486l47.579-27.47v54.94c0,10.236,8.298,18.534,18.534,18.534
				s18.534-8.298,18.534-18.534v-54.94l47.579,27.47c2.92,1.686,6.105,2.486,9.25,2.486c6.405,0,12.636-3.324,16.068-9.27
				c5.118-8.865,2.081-20.201-6.783-25.318l-47.58-27.47l47.58-27.47C674.367,1684.615,677.404,1673.279,672.286,1664.414z"/>
			<path style="fill:#252C38;" d="M931.858,1664.414c-5.116-8.864-16.451-11.903-25.318-6.783l-47.579,27.47v-54.94
				c0-10.236-8.298-18.534-18.534-18.534s-18.534,8.298-18.534,18.534v54.939l-47.578-27.469c-8.867-5.119-20.2-2.081-25.318,6.783
				c-5.118,8.865-2.081,20.2,6.783,25.318l47.58,27.47l-47.58,27.47c-8.864,5.118-11.901,16.453-6.783,25.318
				c3.433,5.946,9.662,9.27,16.068,9.27c3.144,0,6.331-0.801,9.25-2.486l47.578-27.469v54.94c0,10.236,8.298,18.534,18.534,18.534
				s18.534-8.298,18.534-18.534v-54.941l47.579,27.47c2.919,1.686,6.105,2.486,9.25,2.486c6.405,0,12.636-3.324,16.068-9.27
				c5.118-8.865,2.081-20.2-6.783-25.318l-47.58-27.47l47.58-27.47C933.939,1684.614,936.977,1673.279,931.858,1664.414z"/>
			<path style="fill:#252C38;" d="M1191.432,1664.414c-5.117-8.864-16.451-11.903-25.318-6.783l-47.579,27.47v-54.939
				c0-10.236-8.298-18.534-18.534-18.534s-18.534,8.298-18.534,18.534v54.939l-47.579-27.47c-8.867-5.119-20.2-2.081-25.318,6.783
				c-5.118,8.865-2.081,20.201,6.783,25.318l47.58,27.47l-47.58,27.47c-8.864,5.117-11.901,16.453-6.783,25.318
				c3.433,5.946,9.662,9.27,16.068,9.27c3.144,0,6.331-0.801,9.25-2.486l47.579-27.47v54.94c0,10.236,8.298,18.534,18.534,18.534
				s18.534-8.298,18.534-18.534v-54.94l47.579,27.47c2.92,1.686,6.105,2.486,9.25,2.486c6.405,0,12.636-3.324,16.068-9.27
				c5.118-8.865,2.081-20.201-6.783-25.318l-47.58-27.47l47.58-27.47C1193.513,1684.615,1196.55,1673.279,1191.432,1664.414z"/>
			<path style="fill:#252C38;" d="M1451.004,1664.414c-5.117-8.864-16.451-11.903-25.318-6.783l-47.578,27.469v-54.939
				c0-10.236-8.298-18.534-18.534-18.534s-18.534,8.298-18.534,18.534v54.94l-47.579-27.47c-8.865-5.119-20.2-2.081-25.318,6.783
				c-5.118,8.865-2.081,20.2,6.783,25.318l47.58,27.47l-47.58,27.47c-8.864,5.118-11.901,16.453-6.783,25.318
				c3.433,5.946,9.662,9.27,16.068,9.27c3.144,0,6.331-0.801,9.25-2.486l47.579-27.47v54.941c0,10.236,8.298,18.534,18.534,18.534
				s18.534-8.298,18.534-18.534v-54.94l47.578,27.469c2.92,1.686,6.105,2.486,9.25,2.486c6.405,0,12.636-3.324,16.068-9.27
				c5.118-8.865,2.081-20.2-6.783-25.318l-47.58-27.47l47.58-27.47C1453.085,1684.614,1456.122,1673.279,1451.004,1664.414z"/>
			<path style="fill:#252C38;" d="M1710.577,1664.414c-5.117-8.864-16.451-11.903-25.318-6.783l-47.579,27.47v-54.939
				c0-10.236-8.298-18.534-18.534-18.534s-18.534,8.298-18.534,18.534v54.939l-47.579-27.47c-8.868-5.119-20.201-2.081-25.318,6.783
				c-5.118,8.865-2.081,20.201,6.783,25.318l47.58,27.47l-47.58,27.47c-8.864,5.117-11.901,16.453-6.783,25.318
				c3.433,5.946,9.662,9.27,16.068,9.27c3.144,0,6.331-0.801,9.25-2.486l47.579-27.47v54.94c0,10.236,8.298,18.534,18.534,18.534
				s18.534-8.298,18.534-18.534v-54.94l47.579,27.47c2.92,1.686,6.105,2.486,9.25,2.486c6.405,0,12.636-3.324,16.068-9.27
				c5.118-8.865,2.081-20.201-6.783-25.318l-47.58-27.47l47.58-27.47C1712.658,1684.615,1715.695,1673.279,1710.577,1664.414z"/>
		</g>
		<path style="fill:#FFFFFF;" d="M1063.586,1177.559c-9.831,0-19.26-3.905-26.212-10.856L889.98,1019.308
			c-14.476-14.476-14.476-37.947,0-52.423c14.477-14.477,37.947-14.477,52.424,0l121.182,121.182l194.01-194.011
			c14.477-14.477,37.947-14.477,52.424,0c14.476,14.476,14.476,37.947,0,52.423l-220.222,220.223
			C1082.846,1173.653,1073.417,1177.559,1063.586,1177.559z"/>
	</g>
</g>
</svg>
